<?xml version="1.0" encoding="UTF-8" standalone="no"?>
<svg
   width="1280"
   height="256"
   version="1.1"
   viewBox="0 0 1280 256"
   id="svg9"
   sodipodi:docname="stacked.svg"
   xml:space="preserve"
   inkscape:export-filename="stacked_custom.svg"
   inkscape:export-xdpi="96"
   inkscape:export-ydpi="96"
   xmlns:inkscape="http://www.inkscape.org/namespaces/inkscape"
   xmlns:sodipodi="http://sodipodi.sourceforge.net/DTD/sodipodi-0.dtd"
   xmlns="http://www.w3.org/2000/svg"
   xmlns:svg="http://www.w3.org/2000/svg"><defs
     id="defs9" /><sodipodi:namedview
     id="namedview9"
     pagecolor="#ffffff"
     bordercolor="#000000"
     borderopacity="0.25"
     inkscape:showpageshadow="2"
     inkscape:pageopacity="0.0"
     inkscape:pagecheckerboard="0"
     inkscape:deskcolor="#d1d1d1"><inkscape:page
       x="0"
       y="0"
       width="1280"
       height="256"
       id="page2"
       margin="0"
       bleed="0" /></sodipodi:namedview><g
     style="fill:none"
     id="g10"
     transform="matrix(0.44483993,0,0,0.44483993,18.460906,11.604012)"><path
       d="m 224.063,1.18663 c 18.013,-2.31226 36.511,-0.371104 54.724,-1.027673 5.252,-0.827847 10.448,1.598603 12.189,6.794063 0.143,49.58518 -0.029,99.19898 0.086,148.78398 -0.6,8.25 9.448,13.874 16.243,8.964 23.55,-23.123 46.702,-46.645 70.138,-69.8535 1.684,-0.7136 5.053,-2.1124 6.737,-2.7975 3.083,0.8278 5.681,2.3979 7.793,4.6816 12.275,12.3894 24.779,24.5214 36.882,37.0534 1.342,3.34 1.627,8.164 -1.655,10.562 -21.382,21.381 -42.649,42.905 -64.23,64.087 -13.645,12.846 -36.625,11.59 -49.499,-1.741 -26.863,-26.406 -53.354,-53.211 -80.073,-79.788 -7.736,-7.365 -13.046,-17.499 -12.732,-28.3464 -0.028,-30.6304 0,-61.2322 0,-91.8625 0.856,-1.37023 2.541,-4.13924 3.397,-5.50947 z"
       fill="#1b9ebf"
       id="path1-7" /><path
       d="m 130.948,85.1131 c 2.597,-3.9394 8.392,-3.4541 12.218,-1.827 21.866,21.7239 43.761,43.4759 65.399,65.4569 12.647,12.989 12.247,35.055 0.029,48.187 -28.09,28.004 -56.094,56.093 -84.155,84.126 -7.765,7.079 -18.384,9.82 -28.6891,9.449 -27.5188,0 -55.009,-0.029 -82.5278,0 -4.31053,0.942 -8.07866,-1.627 -11.87534,-3.112 -2.51208,-9.363 -0.628019,-19.269 -1.198948,-28.86 0.570929,-11.504 -1.227502,-23.266 1.056218,-34.599 1.45587,-0.77 4.33906,-2.369 5.79493,-3.14 49.78504,-0.057 99.57004,0.115 149.38404,-0.028 9.705,-0.057 13.616,-14.473 6.08,-20.183 -20.325,-20.553 -40.879,-40.878 -61.318,-61.346 -3.5396,-3.768 -8.5067,-6.88 -9.4773,-12.332 0.8279,-1.513 2.5121,-4.51 3.34,-5.995 12.2463,-11.647 24.0073,-23.836 35.9403,-35.7969 z"
       fill="#1b9ebf"
       id="path2-6" /><path
       d="m 387.096,230.217 c 5.281,-5.423 12.561,-7.222 19.497,-9.391 32.658,0.028 65.286,-0.115 97.943,0.028 10.448,3.112 6.566,15.387 7.222,23.437 -0.999,14.33 2.056,29.288 -1.655,43.248 -1.37,0.742 -4.139,2.198 -5.538,2.94 -49.728,0.114 -99.485,-0.086 -149.213,0.086 -5.909,-0.286 -9.363,5.452 -10.362,10.562 -0.285,6.851 6.081,10.619 10.077,15.158 19.583,19.411 38.937,39.051 58.577,58.434 2.855,2.57 5.424,5.795 6.252,9.678 -0.856,1.513 -2.512,4.567 -3.34,6.08 -12.732,12.332 -25.206,24.95 -37.653,37.567 -3.026,1.627 -7.193,1.37 -10.191,0.029 -22.038,-21.724 -43.819,-43.733 -65.714,-65.571 -12.417,-12.989 -12.161,-35.113 0.057,-48.158 27.947,-28.09 56.037,-56.037 84.041,-84.127 z"
       fill="#1b9ebf"
       id="path3-8" /><path
       d="m 148.67,302.862 c 13.588,-13.274 36.711,-11.247 49.728,1.77 28.032,28.119 56.265,56.037 84.24,84.212 4.396,6.195 8.307,13.303 8.307,21.096 0.172,31.544 0.086,63.116 0.029,94.66 -1.57,3.94 -4.71,7.536 -9.449,6.68 -17.099,-0.086 -34.199,0.057 -51.269,-0.086 -5.167,0.286 -10.448,-4.539 -9.678,-9.877 -0.199,-48.586 0.029,-97.2 -0.085,-145.786 0.599,-3.826 -2.17,-6.566 -4.254,-9.335 -3.911,-1.542 -8.278,-2.055 -12.018,0.228 -23.522,23.323 -46.844,46.845 -70.367,70.196 -3.768,3.283 -9.192,2.855 -12.646,-0.657 -12.36,-12.446 -24.8067,-24.778 -37.1388,-37.224 -2.7404,-2.741 -2.3693,-7.308 -0.9135,-10.562 21.9233,-21.696 43.5333,-43.676 65.5143,-65.315 z"
       fill="#1b9ebf"
       id="path4-2" /><circle
       cx="255.705"
       cy="255.705"
       r="49.8937"
       fill="#1b9ebf"
       id="circle4" /></g><g
     transform="matrix(3.2356878,0,0,3.2356878,-538.84757,-201.21412)"
     data-name="Layer 2"
     id="g9"><text
       xml:space="preserve"
       style="font-weight:bold;font-size:84.1926px;font-family:InaiMathi;-inkscape-font-specification:'InaiMathi Bold';text-align:start;writing-mode:lr-tb;direction:ltr;text-anchor:start;fill:#1b9ebf;fill-opacity:1;stroke-width:31.5722"
       x="256.61188"
       y="130.43303"
       id="text10"><tspan
         sodipodi:role="line"
         id="tspan10"
         style="fill:#1b9ebf;fill-opacity:1;stroke-width:31.5722"
         x="256.61188"
         y="130.43303">AI<tspan
   style="font-size:25.2578px;fill:#1b9ebf;fill-opacity:1;stroke-width:31.5722"
   id="tspan11"> </tspan><tspan
   style="fill:#157392;fill-opacity:1;stroke-width:31.5722"
   id="tspan13">P</tspan><tspan
   style="font-size:50.5156px;fill:#157392;fill-opacity:1;stroke-width:31.5722"
   id="tspan12">latform</tspan></tspan></text></g></svg>
