<?xml version="1.0" encoding="UTF-8"?>
<svg version="1.1" xmlns="http://www.w3.org/2000/svg" width="512" height="512">
<path d="M0 0 C14.70870824 13.51341143 28.705601 27.80870318 42.86418152 41.89164734 C46.66676587 45.67326024 50.47982337 49.44397051 54.30168152 53.20610046 C58.94544448 57.77851044 63.57153405 62.36813226 68.18587685 66.97022438 C69.93520058 68.70920628 71.69048805 70.4422121 73.45204735 72.16879845 C87.64295195 86.09219957 96.49427755 96.04614204 96.82743073 116.51347733 C96.83455185 119.78151151 96.81013627 123.04830092 96.78190613 126.31620789 C96.78408577 128.61592922 96.78849322 130.91564942 96.79501343 133.21536255 C96.80078863 138.00722727 96.78202076 142.79816919 96.74504089 147.58988953 C96.69933276 153.73042441 96.71225951 159.86919261 96.7428484 166.00976658 C96.7606302 170.74619907 96.74942305 175.48221659 96.72920799 180.21862602 C96.72269749 182.48363871 96.72480125 184.74869328 96.73571205 187.01368904 C96.74623722 190.17092243 96.71815902 193.32550292 96.67961121 196.48246765 C96.69018555 197.41497345 96.70075989 198.34747925 96.71165466 199.3082428 C96.58231474 205.37736021 96.58231474 205.37736021 94.70409298 208.07315636 C91.38079412 211.13058667 88.46468363 211.99924482 84.05314636 211.99003601 C82.92855515 211.99934143 81.80396393 212.00864685 80.64529419 212.01823425 C78.84506554 211.99364136 78.84506554 211.99364136 77.00846863 211.96855164 C75.76364212 211.96859192 74.51881561 211.9686322 73.23626709 211.96867371 C69.93828553 211.96195329 66.64151685 211.93199391 63.34379578 211.89299011 C61.32501517 211.8748029 59.30686234 211.87223313 57.28800964 211.8757782 C53.40287987 211.88243041 49.51852084 211.86733141 45.63346863 211.84355164 C44.43129196 211.84335022 43.2291153 211.8431488 41.99050903 211.84294128 C40.86906998 211.82702942 39.74763092 211.81111755 38.59220886 211.79472351 C37.60881027 211.78630432 36.62541168 211.77788513 35.61221313 211.76921082 C31.59022697 211.18704479 29.03966443 209.59437968 26.26534939 206.65805721 C24.45649488 203.66084855 24.51106037 201.6113347 24.50883484 198.11895752 C24.50063217 196.83331909 24.4924295 195.54768066 24.48397827 194.2230835 C24.48993664 192.80042922 24.49615572 191.37777602 24.50260925 189.9551239 C24.49850372 188.45527229 24.49304296 186.95542386 24.48632812 185.45558167 C24.47460255 182.22691385 24.47211895 178.99841698 24.47668457 175.76973152 C24.48349081 170.66419873 24.46763222 165.55889112 24.44828796 160.45339966 C24.41041878 149.61471246 24.39763085 138.77604485 24.38737488 127.93730164 C24.37630363 116.23967782 24.36096698 104.54215752 24.31666231 92.84460491 C24.29829974 87.76964188 24.29441596 82.69493589 24.3015976 77.61994755 C24.30311933 74.46210632 24.29233634 71.30439371 24.27821922 68.14658737 C24.27421623 66.68287453 24.2753422 65.21913725 24.28199196 63.75543404 C24.29037672 61.75617622 24.27864258 59.75686428 24.26591492 57.75762939 C24.26520241 56.63915902 24.2644899 55.52068865 24.2637558 54.36832523 C23.83900228 50.990073 22.90181073 49.09587055 20.88737488 46.37480164 C19.04992326 45.45975512 19.04992326 45.45975512 17.01237488 45.37480164 C16.354953 45.29230164 15.69753113 45.20980164 15.02018738 45.12480164 C9.10682841 45.81794261 4.97733766 51.01806443 1.01750183 55.03349304 C0.34698792 55.7053212 -0.323526 56.37714935 -1.01435852 57.06933594 C-3.22232664 59.28377825 -5.42323396 61.50510666 -7.62434387 63.72636414 C-9.15889371 65.26718572 -10.69396073 66.80749239 -12.22952271 68.3473053 C-16.26566456 72.39673696 -20.29619716 76.45170205 -24.32514954 80.50828552 C-30.78351532 87.00981326 -37.2486582 93.50458511 -43.71700478 99.99618149 C-45.9784391 102.26786462 -48.23644525 104.54291527 -50.49414062 106.8183136 C-51.87295797 108.20395594 -53.25188369 109.58949046 -54.63093567 110.97489929 C-55.26109085 111.61179184 -55.89124603 112.24868439 -56.54049683 112.90487671 C-61.81796328 118.19622759 -61.81796328 118.19622759 -66.73762512 118.87480164 C-70.50015401 118.82553318 -72.13730107 117.87103887 -74.87239075 115.3313446 C-75.56647034 114.69356079 -76.26054993 114.05577698 -76.97566223 113.39866638 C-78.03345886 112.39685333 -78.03345886 112.39685333 -79.11262512 111.37480164 C-79.77850647 110.75381592 -80.44438782 110.1328302 -81.13044739 109.49302673 C-85.56027911 105.32813003 -89.90405688 101.07446126 -94.24250793 96.81474304 C-95.8281518 95.2660126 -97.42266512 93.72631342 -99.02571106 92.19560242 C-101.35784431 89.96679153 -103.65923006 87.70990194 -105.95637512 85.44511414 C-106.67498718 84.76981659 -107.39359924 84.09451904 -108.13398743 83.39875793 C-111.39825427 80.12179104 -113.58385966 77.58827168 -113.99739075 72.8704071 C-113.44619152 67.13720408 -110.09674058 64.22843974 -106.11262512 60.37480164 C-105.14735061 59.3886731 -104.18554874 58.39913823 -103.22648621 57.40696716 C-99.73214107 53.80187055 -96.19616252 50.23912447 -92.65559387 46.67948914 C-92.01254114 46.03236088 -91.36948841 45.38523262 -90.70694923 44.71849442 C-87.30728059 41.29808687 -83.90443113 37.88087957 -80.49909973 34.46611023 C-77.00412115 30.96004874 -73.5209879 27.44245804 -70.04033947 23.92217827 C-67.34024742 21.19583399 -64.63120425 18.47851562 -61.91974831 15.76347733 C-60.63230858 14.47119977 -59.34821763 13.17557613 -58.06772423 11.87641525 C-42.10942754 -4.30011756 -21.36737673 -16.43747646 0 0 Z " fill="#1A9DBF" transform="translate(195.1126251220703,300.6251983642578)"/>
<path d="M0 0 C0.95888626 -0.00525696 1.91777252 -0.01051392 2.90571594 -0.01593018 C6.0470145 -0.02903889 9.18779867 -0.0204273 12.32910156 -0.01025391 C14.52386573 -0.0122766 16.71862924 -0.01518966 18.91339111 -0.01895142 C23.49945513 -0.02336183 28.08534322 -0.01698251 32.67138672 -0.00292969 C38.54819532 0.01420178 44.42459404 0.00428767 50.30138779 -0.01364708 C54.82754611 -0.02448505 59.35360713 -0.02103918 63.87976837 -0.0132637 C66.04710183 -0.01126384 68.21444416 -0.01371347 70.38176727 -0.02070236 C73.40709387 -0.02832135 76.43175428 -0.01670778 79.45703125 0 C80.35063858 -0.00607269 81.24424591 -0.01214539 82.16493225 -0.0184021 C86.8801488 0.02983805 90.21968966 0.2009284 93.96972656 3.38818359 C96.15409456 6.49099277 96.21812703 9.16964466 96.21264648 12.90356445 C96.21572311 14.00828598 96.21879974 15.11300751 96.2219696 16.25120544 C96.21119133 18.03410728 96.21119133 18.03410728 96.20019531 19.85302734 C96.19973709 21.0784877 96.19927887 22.30394806 96.19880676 23.56654358 C96.19578583 26.15806038 96.1879043 28.7495754 96.17553711 31.34106445 C96.15731377 35.30670615 96.15502726 39.27211382 96.15527344 43.23779297 C96.15035678 45.75537311 96.14452782 48.27295167 96.13769531 50.79052734 C96.13658249 51.97710434 96.13546967 53.16368134 96.13432312 54.38621521 C96.12794327 55.4940889 96.12156342 56.60196259 96.11499023 57.7434082 C96.11117844 58.71507431 96.10736664 59.68674042 96.10343933 60.68785095 C95.84860673 65.83420152 95.84860673 65.83420152 94.96972656 68.38818359 C91.13079575 71.28702358 88.30114494 71.76246933 83.54893494 71.75999451 C82.25206253 71.76675201 80.95519012 71.77350952 79.61901855 71.7804718 C78.18896353 71.77291919 76.75890983 71.76511348 75.32885742 71.75708008 C73.81738513 71.75954895 72.30591454 71.76338824 70.79444885 71.76849365 C67.54396291 71.77682334 64.2936522 71.7760313 61.04316521 71.76830864 C55.90422845 71.75672092 50.76551696 71.76889139 45.62660217 71.78492737 C32.86491241 71.82111026 20.10322809 71.82734902 7.3414917 71.8248291 C-2.58114942 71.82311898 -12.50360654 71.83020117 -22.42619604 71.86480767 C-27.53579839 71.88162159 -32.64495226 71.87979056 -37.75455296 71.86398494 C-40.93094841 71.85819642 -44.10713018 71.86891243 -47.28348732 71.88423157 C-48.75730028 71.88796405 -50.23114886 71.88483163 -51.70492935 71.87436104 C-53.71540342 71.86102795 -55.72600224 71.87450952 -57.73646545 71.88938904 C-58.86193315 71.88917975 -59.98740084 71.88897047 -61.14697361 71.88875484 C-64.70957743 72.50584876 -65.83514965 73.56772763 -68.03027344 76.38818359 C-69.6504417 80.1920569 -70.45813346 82.25008873 -68.98060608 86.18026733 C-66.56783979 90.14879663 -63.69387434 93.10637093 -60.38745117 96.33984375 C-59.71722931 97.00729111 -59.04700745 97.67473846 -58.35647583 98.3624115 C-56.14902932 100.55761502 -53.93136962 102.74220541 -51.71386719 104.92724609 C-50.17515092 106.45528187 -48.63724421 107.98413325 -47.10011292 109.51376343 C-43.05801232 113.53310696 -39.0078583 117.54422339 -34.95507812 121.55279541 C-28.4632645 127.97435752 -21.97898445 134.40344755 -15.50377083 140.84174728 C-13.24024879 143.08855925 -10.97040756 145.32884626 -8.70005798 147.5687561 C-7.31434364 148.94401088 -5.92887783 150.31951615 -4.54370117 151.6953125 C-3.9104039 152.31670609 -3.27710663 152.93809967 -2.62461853 153.57832336 C-1.75613281 154.44442986 -1.75613281 154.44442986 -0.87010193 155.32803345 C-0.36701224 155.82538309 0.13607744 156.32273273 0.65441227 156.83515358 C2.92753791 159.51909943 3.95203036 161.60955077 4.03222656 165.13818359 C0.79719816 175.03356458 -11.06689189 183.75203421 -18.27294922 191.03588867 C-19.78411029 192.56878719 -21.28896588 194.10792619 -22.78759766 195.65307617 C-24.96871463 197.90102999 -27.16882725 200.12872051 -29.37402344 202.35302734 C-30.03776978 203.04460434 -30.70151611 203.73618134 -31.38537598 204.44871521 C-34.45127328 207.50127052 -36.44347508 209.20463021 -40.63378906 210.51538086 C-47.69646576 210.25088585 -51.89636074 205.95965465 -56.59887695 201.20776367 C-57.22570374 200.58619385 -57.85253052 199.96462402 -58.49835205 199.32421875 C-60.55955002 197.27617727 -62.6096336 195.21741187 -64.65917969 193.15771484 C-66.09550421 191.7234128 -67.53227369 190.28955622 -68.96946716 188.85612488 C-71.97763162 185.85237834 -74.98031673 182.84328635 -77.97924805 179.83032227 C-81.81111902 175.98139096 -85.65625928 172.1460442 -89.50564671 168.314641 C-92.47517545 165.35599065 -95.43747506 162.39018497 -98.39768791 159.42221642 C-99.81198274 158.00592919 -101.22848502 156.59184258 -102.64727974 155.18006325 C-104.63591977 153.19910085 -106.61459284 151.20867017 -108.59106445 149.21557617 C-109.17145981 148.64125351 -109.75185516 148.06693085 -110.34983826 147.47520447 C-118.30783833 139.3937083 -122.79209102 130.54354945 -123.12792969 119.04443359 C-122.39047196 103.64775518 -114.1759619 94.23083042 -103.67333984 83.74072266 C-102.44772087 82.50502785 -102.44772087 82.50502785 -101.19734192 81.24436951 C-98.51409232 78.5422321 -95.82346692 75.84759561 -93.13183594 73.15380859 C-91.72890724 71.7460754 -90.32598051 70.33834022 -88.92330396 68.93035579 C-84.52074046 64.511573 -80.11256531 60.09844262 -75.70117188 55.68847656 C-71.16471685 51.15322453 -66.63955603 46.60691558 -62.11950362 42.05532098 C-58.2224232 38.13202748 -54.31760739 34.21654674 -50.40676057 30.30697608 C-48.07793705 27.97866028 -45.75321888 25.64649741 -43.43437576 23.30823517 C-40.84766888 20.7018925 -38.24854674 18.10857553 -35.64599609 15.51806641 C-34.51105965 14.36627144 -34.51105965 14.36627144 -33.35319519 13.19120789 C-28.92051371 8.81035098 -24.83895759 5.67680684 -19.03027344 3.38818359 C-18.32114492 3.09508112 -17.61201641 2.80197865 -16.88139915 2.49999428 C-11.1995644 0.36046354 -6.03218001 -0.04136775 0 0 Z " fill="#1B9DBF" transform="translate(416.0302734375,219.61181640625)"/>
<path d="M0 0 C1.7773201 -0.02409439 1.7773201 -0.02409439 3.59054565 -0.04867554 C8.99949612 -0.09310354 14.40830224 -0.13461157 19.81738281 -0.15722656 C22.67317689 -0.17057292 25.5282576 -0.19844118 28.38378906 -0.23925781 C32.4970302 -0.29804474 36.60950529 -0.31588281 40.72314453 -0.33056641 C42.0003537 -0.35323578 43.27756287 -0.37590515 44.59347534 -0.39926147 C46.38025192 -0.39498642 46.38025192 -0.39498642 48.203125 -0.390625 C49.77173782 -0.40275528 49.77173782 -0.40275528 51.37203979 -0.41513062 C55.31438217 0.42328152 56.68724073 2.11270791 59.23095703 5.19287109 C59.85343361 8.1651907 59.85343361 8.1651907 59.8500061 11.52427673 C59.8609581 12.80143051 59.8719101 14.07858429 59.88319397 15.3944397 C59.87015831 16.80243332 59.85666963 18.21042281 59.84277344 19.6184082 C59.84631582 21.10693529 59.85209479 22.59545849 59.85993958 24.08396912 C59.87210981 27.28546569 59.86866213 30.48642923 59.85310745 33.68791008 C59.82878025 38.75185529 59.84028993 43.81533423 59.85678101 48.87928772 C59.88127088 57.80222055 59.87547716 66.72494117 59.86297607 75.64788818 C59.84439254 89.07817643 59.84925669 102.5084241 59.88301027 115.93868262 C59.89451561 120.97075974 59.89009704 126.00249719 59.87298989 131.03455532 C59.86508316 134.16729465 59.86934912 137.29993546 59.87669945 140.4326725 C59.87750858 141.88307732 59.87317367 143.33349574 59.86325645 144.78386688 C59.8503524 146.76736341 59.85764292 148.75096039 59.86587524 150.73448181 C59.86304755 152.39779494 59.86304755 152.39779494 59.86016273 154.09471035 C60.29327243 157.71354557 61.33471586 160.09297815 63.23095703 163.19287109 C67.07404467 165.75492952 68.66498743 165.86653874 73.23095703 165.19287109 C80.88944011 160.087821 87.32233809 152.18718295 93.77651024 145.66135216 C95.87147315 143.54417077 97.97054741 141.43114692 100.07087708 139.31929016 C106.03667902 133.32006274 111.9981374 127.31656946 117.94946289 121.30297852 C121.6026854 117.61212239 125.26317294 113.92860739 128.92843056 110.24970436 C130.31985946 108.85022813 131.70850741 107.44798117 133.09428978 106.04291344 C135.02778423 104.08295517 136.97037341 102.13245955 138.9152832 100.18383789 C139.48318573 99.60357849 140.05108826 99.02331909 140.63619995 98.42547607 C144.74472674 94.33756691 147.72519737 92.26960814 153.54736328 92.09130859 C158.81482031 93.66651844 161.49989588 96.84860821 165.16845703 100.81787109 C166.50830657 102.2291966 167.85074898 103.63806518 169.19580078 105.04443359 C169.85700928 105.73819092 170.51821777 106.43194824 171.19946289 107.14672852 C173.83950676 109.80580888 176.63542497 112.24526642 179.47875977 114.68310547 C185.05929088 119.49152186 190.0007815 124.9427592 194.78564453 130.52880859 C195.88498501 131.79453574 197.04550043 133.0074145 198.23095703 134.19287109 C199.2349814 140.66325035 199.2349814 140.66325035 197.11787415 143.88864136 C196.5961412 144.45680573 196.07440826 145.02497009 195.53686523 145.61035156 C194.89754059 146.3065863 194.25821594 147.00282104 193.59951782 147.72015381 C188.38192353 153.16718968 183.09307199 158.5403927 177.77392578 163.88818359 C177.13087305 164.53531185 176.48782032 165.18244011 175.82528114 165.84917831 C172.4256125 169.26958586 169.02276304 172.68679316 165.61743164 176.1015625 C162.12245306 179.60762399 158.63931981 183.12521469 155.15867138 186.64549446 C152.45857933 189.37183874 149.74953616 192.08915711 147.03808022 194.8041954 C145.75064049 196.09647296 144.46654954 197.3920966 143.18605614 198.69125748 C132.77506422 209.24462389 123.32656397 217.96292345 107.85595703 218.50537109 C95.27289277 218.22690771 86.12688916 212.43471576 77.29370117 203.92822266 C76.654898 203.32229404 76.01609484 202.71636543 75.357934 202.09207535 C67.54243406 194.6451358 59.87750626 187.04297906 52.22705078 179.42724609 C51.45395128 178.65822212 50.68085178 177.88919815 49.88432503 177.09687042 C45.80907225 173.04224378 41.73693409 168.98451832 37.66723633 164.92431641 C33.48987524 160.75810313 29.30093686 156.60372763 25.1094656 152.45171738 C21.85731239 149.2257567 18.6141224 145.99089563 15.37324715 142.7536087 C13.83256271 141.21776594 12.28852831 139.68527549 10.74096489 138.15636444 C-1.50405471 126.05008296 -11.99038174 114.98474237 -12.17562866 96.78500366 C-12.16955597 95.91243927 -12.16348328 95.03987488 -12.15722656 94.14086914 C-12.16248352 93.19159042 -12.16774048 92.24231171 -12.17315674 91.26426697 C-12.1862437 88.16086851 -12.1776625 85.0579925 -12.16748047 81.95458984 C-12.16950361 79.78367515 -12.17241705 77.61276113 -12.17617798 75.44184875 C-12.18058528 70.90883872 -12.17421853 66.37600682 -12.16015625 61.84301758 C-12.1430142 56.03461736 -12.1529475 50.22663152 -12.17087364 44.41824627 C-12.18171093 39.94270194 -12.17826624 35.46725603 -12.17049026 30.99170876 C-12.16849076 28.84949507 -12.17093874 26.70727241 -12.17792892 24.5650692 C-12.185548 21.57577146 -12.17393476 18.5871479 -12.15722656 15.59790039 C-12.16329926 14.71521484 -12.16937195 13.8325293 -12.17562866 12.9230957 C-12.12709071 8.23534032 -11.92311726 4.93755667 -8.76904297 1.19287109 C-5.61163665 0.14040232 -3.31719133 0.0408566 0 0 Z " fill="#1A9DBF" transform="translate(231.76904296875,-0.19287109375)"/>
<path d="M0 0 C4.39659643 1.36677592 7.03796493 4.43397547 10.17947388 7.67753601 C11.19370306 8.66876328 12.21142483 9.65642417 13.23181152 10.64131165 C16.96644628 14.25538479 20.65888369 17.91105235 24.34744263 21.57206726 C25.35310493 22.56974404 25.35310493 22.56974404 26.37908363 23.58757591 C29.92178156 27.10369982 33.46089968 30.62338675 36.99758911 34.14555359 C39.90897327 37.04357343 42.82746221 39.9341394 45.75247192 42.81840515 C49.3066499 46.32310539 52.8482445 49.84007157 56.38131142 53.36604881 C57.72098216 54.69904127 59.06487646 56.02780401 60.41319847 57.35204506 C70.4453646 67.2150462 78.34950016 75.8165789 78.55447388 90.61503601 C78.60314814 110.61169184 64.31727105 121.66645934 51.19338989 134.8795166 C49.5016036 136.57946758 47.80945619 138.27905924 46.11697388 139.97831726 C45.2538559 140.84551077 44.39073792 141.71270428 43.50146484 142.60617638 C38.94232982 147.18605083 34.38001237 151.76272834 29.81521606 156.33695984 C25.11625635 161.04702844 20.42914536 165.76862599 15.74446106 170.49288654 C12.12219789 174.14131646 8.49105587 177.7808114 4.85748291 181.41797447 C3.12544604 183.15486789 1.39677562 184.89512542 -0.32836914 186.63886452 C-2.74216987 189.07708242 -5.16837064 191.5022881 -7.59786987 193.92485046 C-8.65021317 194.99640884 -8.65021317 194.99640884 -9.72381592 196.08961487 C-18.77474565 205.04709003 -29.39749106 209.95340751 -42.21728516 210.0841217 C-43.52377518 210.07501266 -43.52377518 210.07501266 -44.85665894 210.0657196 C-45.80433136 210.07097656 -46.75200378 210.07623352 -47.72839355 210.08164978 C-50.82698575 210.09473778 -53.92505471 210.08615445 -57.02365112 210.07597351 C-59.19217018 210.07799679 -61.36068858 210.08091034 -63.52920532 210.08467102 C-68.05801925 210.08907861 -72.58665489 210.08271126 -77.115448 210.06864929 C-82.91478199 210.05151745 -88.71370062 210.06143396 -94.51301956 210.07936668 C-98.98431525 210.09021185 -103.45551255 210.08675548 -107.92681122 210.07898331 C-110.0654073 210.07698546 -112.20401239 210.07942595 -114.34259796 210.08642197 C-117.32929655 210.09405292 -120.31532284 210.08241069 -123.30197144 210.0657196 C-124.18106171 210.0717923 -125.06015198 210.07786499 -125.96588135 210.0841217 C-130.98053241 210.03228622 -134.48632903 209.48915193 -138.82052612 206.67753601 C-140.16275292 203.99308241 -139.96248071 201.9043312 -139.98165894 198.89848328 C-139.99126648 197.68705154 -140.00087402 196.47561981 -140.01077271 195.22747803 C-140.01502258 193.91291122 -140.01927246 192.59834442 -140.02365112 191.24394226 C-140.02940236 189.88635251 -140.03516009 188.52876279 -140.04092407 187.1711731 C-140.05143227 184.32392498 -140.05727631 181.47670509 -140.0607605 178.62944031 C-140.06624922 174.97964479 -140.09028552 171.33022159 -140.11873245 167.68054295 C-140.13734726 164.87614854 -140.14256376 162.07184409 -140.14409637 159.26739311 C-140.14859907 157.26706506 -140.16724981 155.26678515 -140.18606567 153.26654053 C-140.18306458 152.05195663 -140.18006348 150.83737274 -140.17697144 149.58598328 C-140.18061707 148.51501907 -140.1842627 147.44405487 -140.1880188 146.34063721 C-139.82052612 143.67753601 -139.82052612 143.67753601 -138.48574829 141.93325806 C-134.5466471 138.96283387 -132.53614011 138.42743613 -127.64024353 138.42597961 C-126.34612045 138.42059677 -125.05199738 138.41521393 -123.71865845 138.40966797 C-122.28134112 138.41368231 -120.84402423 138.41785323 -119.40670776 138.42216492 C-117.89553132 138.41941542 -116.38435632 138.41573577 -114.8731842 138.41119385 C-111.61724458 138.40307688 -108.36137365 138.40091462 -105.10542488 138.40314102 C-99.95827227 138.40597064 -94.81125732 138.39163562 -89.66413879 138.37416077 C-75.02724269 138.32709921 -60.39035583 138.3031888 -45.75338745 138.29667664 C-37.67083228 138.29292878 -29.58843268 138.2749218 -21.50594419 138.24158227 C-16.38800467 138.22133697 -11.27046551 138.21901309 -6.15250218 138.22986245 C-2.96953626 138.23246611 0.21319565 138.21848269 3.396101 138.19978142 C4.87312976 138.19445048 6.35020139 138.19597164 7.82721329 138.20481682 C9.84219391 138.21591123 11.85726924 138.2001843 13.87220764 138.18305969 C15.00027297 138.18197016 16.1283383 138.18088062 17.29058743 138.17975807 C20.82732268 137.56490993 21.98967729 136.4635996 24.17947388 133.67753601 C25.01023149 131.55343354 25.01023149 131.55343354 25.17947388 129.30253601 C25.28259888 128.57292664 25.38572388 127.84331726 25.49197388 127.09159851 C24.70898421 121.04300335 19.17107326 116.38944797 15.02151489 112.29252625 C14.4144873 111.6852066 13.80745972 111.07788696 13.18203735 110.4521637 C11.18719205 108.45870423 9.18536764 106.47241416 7.18338013 104.48612976 C5.78816189 103.09464656 4.39338818 101.70271751 2.9990387 100.31036377 C-0.66561582 96.65332583 -4.33623187 93.00232944 -8.00814819 89.35258484 C-11.73631428 85.64484873 -15.45885999 81.93147956 -19.18185425 78.21855164 C-25.19904973 72.21890814 -31.21963557 66.22269278 -37.24479675 60.23104858 C-38.28763039 59.19388929 -39.32969689 58.15595788 -40.3708477 57.1171093 C-41.77445477 55.72328621 -43.19103872 54.34256892 -44.60801697 52.96234131 C-47.33944972 50.14165602 -48.43413885 48.61868622 -48.82052612 44.67753601 C-43.64771309 35.54942481 -34.78121777 28.08227819 -27.48141479 20.69316101 C-25.82794006 19.01145104 -24.18438375 17.31993323 -22.55075073 15.61894226 C-20.17662869 13.14747526 -17.77423868 10.70698107 -15.36349487 8.27128601 C-14.64131271 7.50892639 -13.91913055 6.74656677 -13.17506409 5.96110535 C-9.08716335 1.90689957 -5.9512396 -0.61051695 0 0 Z " fill="#1A9DBF" transform="translate(139.82052612304688,81.32246398925781)"/>
<path d="M0 0 C7.32049799 6.55842722 11.51332645 13.87555262 15 23 C15.26683594 23.68578125 15.53367187 24.3715625 15.80859375 25.078125 C19.65375841 37.2765784 16.96686144 50.71592988 11.875 62.0625 C5.32734951 74.37599198 -5.39420934 82.83555118 -18.45703125 87.2734375 C-31.50110787 91.00031653 -44.61703167 89.62484377 -56.75 83.64453125 C-70.36032356 75.90573447 -78.6956135 65.11265372 -83 50 C-85.50887478 37.66469898 -83.64977924 24.45610946 -77.5703125 13.37109375 C-69.06962887 0.53548438 -57.74684072 -7.97009562 -42.75 -11.3125 C-27.21172456 -13.74514961 -12.326639 -9.62440282 0 0 Z " fill="#1A9DBF" transform="translate(289,217)"/>
</svg>